<svg xmlns="http://www.w3.org/2000/svg" xmlns:xlink="http://www.w3.org/1999/xlink" style="display: none">
  <symbol id="icon-diff" viewBox="0 0 24 24" fill="none" stroke="currentColor" stroke-width="2" stroke-linecap="round" stroke-linejoin="round">
    <rect x="4" y="4" width="6" height="16" rx="2" />
    <rect x="14" y="4" width="6" height="16" rx="2" />
    <path d="M7 9h2" />
    <path d="M7 12h2" />
    <path d="M7 15h2" />
    <path d="M16 9h2" />
    <path d="M16 12h2" />
    <path d="M16 15h2" />
  </symbol>

  <symbol id="icon-import" viewBox="0 0 24 24" fill="none" stroke="currentColor" stroke-width="2" stroke-linecap="round" stroke-linejoin="round">
    <path d="M12 5v9" />
    <polyline points="8.5 11.5 12 15 15.5 11.5" />
    <path d="M5 19h14" />
  </symbol>

  <symbol id="icon-export" viewBox="0 0 24 24" fill="none" stroke="currentColor" stroke-width="2" stroke-linecap="round" stroke-linejoin="round">
    <path d="M12 19v-9" />
    <polyline points="8.5 12.5 12 9 15.5 12.5" />
    <path d="M5 5h14" />
  </symbol>

  <symbol id="icon-format" viewBox="0 0 24 24" fill="none" stroke="currentColor" stroke-width="2" stroke-linecap="round" stroke-linejoin="round">
    <path d="M8 6H6.5a1.5 1.5 0 0 0-1.5 1.5v2c0 .8-.5 1.5-1.5 1.5 1 0 1.5.7 1.5 1.5v2A1.5 1.5 0 0 0 6.5 16H8" />
    <path d="M16 6h1.5A1.5 1.5 0 0 1 19 7.5v2c0 .8.5 1.5 1.5 1.5-1 0-1.5.7-1.5 1.5v2a1.5 1.5 0 0 1-1.5 1.5H16" />
    <line x1="11" y1="6" x2="11" y2="18" />
    <line x1="13" y1="6" x2="13" y2="18" />
  </symbol>

  <symbol id="icon-minify" viewBox="0 0 24 24" fill="none" stroke="currentColor" stroke-width="2" stroke-linecap="round" stroke-linejoin="round">
    <path d="M5 7h14" />
    <path d="M5 17h14" />
    <polyline points="9 9 6 12 9 15" />
    <polyline points="15 9 18 12 15 15" />
    <line x1="11" y1="12" x2="13" y2="12" />
  </symbol>

  <symbol id="icon-repair" viewBox="0 0 24 24" fill="none" stroke="currentColor" stroke-width="2" stroke-linecap="round" stroke-linejoin="round">
    <path d="M20.5 6.5a4.5 4.5 0 0 1-5.6 5.4l-7.7 7.7-2.5-2.5 7.7-7.7A4.5 4.5 0 0 1 8.8 6" />
    <path d="M4.2 18.8 3 20" />
  </symbol>

  <symbol id="icon-clear" viewBox="0 0 24 24" fill="none" stroke="currentColor" stroke-width="2" stroke-linecap="round" stroke-linejoin="round">
    <path d="M9 5h6" />
    <path d="M5 8h14" />
    <path d="M8 8v9a2 2 0 0 0 2 2h4a2 2 0 0 0 2-2V8" />
    <line x1="11" y1="11" x2="11" y2="17" />
    <line x1="13" y1="11" x2="13" y2="17" />
  </symbol>

  <symbol id="icon-moon" viewBox="0 0 24 24" fill="none" stroke="currentColor" stroke-width="2" stroke-linecap="round" stroke-linejoin="round">
    <path d="M15.2 5a7 7 0 1 0 4 12.8A6 6 0 0 1 15.2 5Z" />
  </symbol>

  <symbol id="icon-sun" viewBox="0 0 24 24" fill="none" stroke="currentColor" stroke-width="2" stroke-linecap="round" stroke-linejoin="round">
    <circle cx="12" cy="12" r="4" />
    <line x1="12" y1="3" x2="12" y2="5.5" />
    <line x1="12" y1="18.5" x2="12" y2="21" />
    <line x1="3" y1="12" x2="5.5" y2="12" />
    <line x1="18.5" y1="12" x2="21" y2="12" />
    <line x1="5.4" y1="5.4" x2="7.2" y2="7.2" />
    <line x1="16.8" y1="16.8" x2="18.6" y2="18.6" />
    <line x1="5.4" y1="18.6" x2="7.2" y2="16.8" />
    <line x1="16.8" y1="7.2" x2="18.6" y2="5.4" />
  </symbol>
</svg>

