<svg xmlns="http://www.w3.org/2000/svg" xmlns:xlink="http://www.w3.org/1999/xlink" style="display: none">
  <symbol id="icon-diff" viewBox="0 0 24 24" fill="none" stroke="currentColor" stroke-width="2" stroke-linecap="round" stroke-linejoin="round">
    <path d="M9 7H6a1 1 0 0 0-1 1v8a1 1 0 0 0 1 1h3" />
    <path d="M15 7h3a1 1 0 0 1 1 1v8a1 1 0 0 1-1 1h-3" />
    <path d="M10 12h4" />
    <path d="M12 10l2 2-2 2" />
  </symbol>

  <symbol id="icon-import" viewBox="0 0 24 24" fill="none" stroke="currentColor" stroke-width="2" stroke-linecap="round" stroke-linejoin="round">
    <path d="M12 5v9" />
    <polyline points="8.5 11.5 12 15 15.5 11.5" />
    <path d="M5 19h14" />
  </symbol>

  <symbol id="icon-export" viewBox="0 0 24 24" fill="none" stroke="currentColor" stroke-width="2" stroke-linecap="round" stroke-linejoin="round">
    <path d="M12 19v-9" />
    <polyline points="8.5 12.5 12 9 15.5 12.5" />
    <path d="M5 5h14" />
  </symbol>

  <symbol id="icon-format" viewBox="0 0 24 24" fill="none" stroke="currentColor" stroke-width="2" stroke-linecap="round" stroke-linejoin="round">
    <path d="M7 6H6a1 1 0 0 0-1 1v10a1 1 0 0 0 1 1h1" />
    <path d="M17 6h1a1 1 0 0 1 1 1v10a1 1 0 0 1-1 1h-1" />
    <path d="M10 8h4" />
    <path d="M9 12h6" />
    <path d="M10 16h4" />
  </symbol>

  <symbol id="icon-minify" viewBox="0 0 24 24" fill="none" stroke="currentColor" stroke-width="2" stroke-linecap="round" stroke-linejoin="round">
    <polyline points="7 8 11 12 7 16" />
    <polyline points="17 8 13 12 17 16" />
    <line x1="11" y1="6" x2="13" y2="6" />
    <line x1="11" y1="18" x2="13" y2="18" />
  </symbol>

  <symbol id="icon-repair" viewBox="0 0 24 24" fill="none" stroke="currentColor" stroke-width="2" stroke-linecap="round" stroke-linejoin="round">
    <path d="M19.5 7.5a3.5 3.5 0 0 1-4.5 3.3l-6.8 6.8-2.5-2.5 6.8-6.8A3.5 3.5 0 0 1 8.8 3.8" />
    <circle cx="6.2" cy="18.8" r="1.2" />
  </symbol>

  <symbol id="icon-clear" viewBox="0 0 24 24" fill="none" stroke="currentColor" stroke-width="2" stroke-linecap="round" stroke-linejoin="round">
    <path d="M10 5h4" />
    <path d="M5 9h14" />
    <path d="M9 9v8a1 1 0 0 0 1 1h4a1 1 0 0 0 1-1V9" />
    <line x1="11" y1="12" x2="11" y2="16" />
    <line x1="13" y1="12" x2="13" y2="16" />
  </symbol>

  <symbol id="icon-moon" viewBox="0 0 24 24" fill="none" stroke="currentColor" stroke-width="2" stroke-linecap="round" stroke-linejoin="round">
    <path d="M19 14.5A7.5 7.5 0 1 1 9.5 5a5.5 5.5 0 0 0 9.5 9.5Z" />
  </symbol>

  <symbol id="icon-sun" viewBox="0 0 24 24" fill="none" stroke="currentColor" stroke-width="2" stroke-linecap="round" stroke-linejoin="round">
    <circle cx="12" cy="12" r="4" />
    <line x1="12" y1="3" x2="12" y2="5.5" />
    <line x1="12" y1="18.5" x2="12" y2="21" />
    <line x1="3" y1="12" x2="5.5" y2="12" />
    <line x1="18.5" y1="12" x2="21" y2="12" />
  </symbol>
</svg>

